<!-- Updated app logo (replaced with uploaded "couple-plans" logo) -->
<svg xmlns="http://www.w3.org/2000/svg" width="128" height="128" viewBox="0 0 128 128" aria-hidden="true">
  <defs>
    <linearGradient id="cp-grad" x1="0" y1="0" x2="1" y2="1">
      <stop offset="0" stop-color="#FB7185"/>
      <stop offset="1" stop-color="#A78BFA"/>
    </linearGradient>
  </defs>

  <rect x="6" y="6" width="116" height="116" rx="20" fill="url(#cp-grad)" />

  <!-- simple joined hearts icon -->
  <g transform="translate(20,18) scale(0.75)" fill="#fff" stroke="rgba(0,0,0,0.06)" stroke-width="1">
    <path d="M48 18c-6-12-28-8-28 8 0 12 28 30 28 30s28-18 28-30c0-16-22-20-28-8z" opacity="0.95" />
    <path d="M80 18c-6-12-28-8-28 8 0 12 28 30 28 30s28-18 28-30c0-16-22-20-28-8z" opacity="0.95" transform="translate(-18,0)"/>
  </g>

  <!-- app initials subtle -->
  <text x="64" y="105" text-anchor="middle" font-family="Segoe UI, Roboto, Arial" font-size="14" fill="rgba(255,255,255,0.95)" font-weight="700">Couple Plans</text>
</svg>
